<?xml version="1.0" encoding="utf-8"?>
<!-- Generator: Adobe Illustrator 22.0.0, SVG Export Plug-In . SVG Version: 6.00 Build 0)  -->
<svg version="1.1" id="Layer_1" xmlns="http://www.w3.org/2000/svg" xmlns:xlink="http://www.w3.org/1999/xlink" x="0px" y="0px"
	 viewBox="0 0 256 256" style="enable-background:new 0 0 256 256;" xml:space="preserve">
<style type="text/css">
	.st0{fill:#382B73;}
	.st1{fill:#473080;}
	.st2{fill:#1CAEE4;}
	.st3{fill:#009ADD;}
	.st4{fill:#FEDE3A;}
	.st5{fill:#E7AD27;}
	.st6{fill:#136DA0;}
	.st7{fill:#FFFFFF;}
	.st8{fill:#E6E7E8;}
	.st9{fill:#D1D3D4;}
	.st10{fill:#EF5A9D;}
	.st11{fill:#E43D91;}
	.st12{fill:#FFF335;}
	.st13{fill:#F7CB15;}
</style>
<g>
	<g>
		<circle class="st0" cx="128" cy="128" r="120"/>
		<circle class="st1" cx="128" cy="128" r="102.5"/>
	</g>
	<path class="st0" d="M207.077,176.557L200.52,170c-2.45-2.45-5.909-3.25-9.029-2.42l-11.604-11.605
		c0.001-0.002,0.003-0.003,0.004-0.005c8.04-10.77,12.8-24.13,12.8-38.6c0-35.69-28.93-64.62-64.62-64.62
		c-35.69,0-64.62,28.93-64.62,64.62c0,26.075,15.459,48.528,37.707,58.737C99.141,180.139,98,184.686,98,189.501
		c0,16.568,13.431,30,30,30s30-13.432,30-30c0-4.792-1.129-9.317-3.127-13.335c4.194-1.913,8.152-4.251,11.807-6.976
		c0,0,0.001,0,0.001-0.001l11.599,11.6c0,0,0,0,0,0c-0.83,3.12-0.03,6.58,2.42,9.03l8.993,8.993
		c0.778,0.778,2.048,0.791,2.823,0.008c1.561-1.577,3.065-3.215,4.505-4.901c3.946-4.612,7.432-9.634,10.4-14.979
		C207.853,178.162,207.706,177.186,207.077,176.557z"/>
	<g>
		<g>
			<g>
				<g>
					<g>
						
							<rect x="167.434" y="144.968" transform="matrix(0.7071 -0.7071 0.7071 0.7071 -60.7064 171.5833)" class="st2" width="18.682" height="28.211"/>
					</g>
					
						<rect x="169.414" y="149.749" transform="matrix(0.7071 -0.7071 0.7071 0.7071 -65.4867 169.6032)" class="st3" width="5.161" height="28.211"/>
					<g>
						<path class="st4" d="M207.077,169.557c0.63,0.63,0.776,1.606,0.344,2.385c-2.969,5.345-6.454,10.367-10.4,14.979
							c-1.439,1.686-2.944,3.324-4.505,4.901c-0.774,0.782-2.044,0.77-2.823-0.008l-8.993-8.993c-2.45-2.45-3.25-5.91-2.42-9.03
							c0.41-1.53,1.22-2.98,2.42-4.18l6.11-6.11l0.52-0.53c1.19-1.18,2.64-1.98,4.16-2.39c3.12-0.83,6.58-0.03,9.03,2.42
							L207.077,169.557z"/>
					</g>
					<path class="st5" d="M186.81,176.71l10.21,10.21c-1.439,1.686-2.944,3.324-4.505,4.901c-0.774,0.782-2.044,0.77-2.823-0.008
						l-8.993-8.993c-2.45-2.45-3.25-5.91-2.42-9.03c0.41-1.53,1.22-2.98,2.42-4.18l6.11-6.11c-2.21,2.21-3.08,5.24-2.62,8.1
						C184.49,173.47,185.36,175.26,186.81,176.71z"/>
					<path class="st2" d="M128.07,45.75c-35.69,0-64.62,28.93-64.62,64.62c0,35.68,28.93,64.61,64.62,64.61
						c14.48,0,27.84-4.76,38.61-12.79c1.39-1.04,2.73-2.13,4.03-3.27c3.4-2.99,6.48-6.32,9.18-9.95c8.04-10.77,12.8-24.13,12.8-38.6
						C192.69,74.68,163.76,45.75,128.07,45.75z M128.07,158.34c-26.5,0-47.98-21.48-47.98-47.97c0-26.5,21.48-47.98,47.98-47.98
						s47.98,21.48,47.98,47.98C176.05,136.86,154.57,158.34,128.07,158.34z"/>
					<path class="st3" d="M128.07,55.09c-30.53,0-55.28,24.75-55.28,55.28s24.75,55.28,55.28,55.28c12.57,0,24.15-4.19,33.43-11.25
						c0.01,0,0.01-0.01,0.02-0.01c0.88-0.67,1.73-1.37,2.57-2.09c2.96-2.54,5.65-5.39,8.01-8.5c7.06-9.28,11.25-20.86,11.25-33.43
						C183.35,79.84,158.6,55.09,128.07,55.09z M128.07,158.34c-26.5,0-47.98-21.48-47.98-47.97c0-26.5,21.48-47.98,47.98-47.98
						s47.98,21.48,47.98,47.98C176.05,136.86,154.57,158.34,128.07,158.34z"/>
					<path class="st6" d="M176.05,110.37c0,12.43-4.73,23.75-12.48,32.27c-8.78,9.65-21.43,15.7-35.5,15.7
						c-14.15,0-26.87-6.12-35.64-15.86c-7.67-8.5-12.34-19.76-12.34-32.11c0-26.5,21.48-47.98,47.98-47.98
						S176.05,83.87,176.05,110.37z"/>
				</g>
			</g>
		</g>
		<g>
			<path class="st7" d="M163.57,84.26v58.38c-8.78,9.65-21.43,15.7-35.5,15.7c-14.15,0-26.87-6.12-35.64-15.86V84.26
				c0-1.12,1.35-1.68,2.14-0.89l4.11,4.11c0.49,0.49,1.28,0.49,1.77,0l5.34-5.33c0.49-0.49,1.28-0.49,1.77,0l5.34,5.33
				c0.49,0.49,1.28,0.49,1.77,0l5.33-5.33c0.49-0.49,1.29-0.49,1.78,0l5.33,5.33c0.49,0.49,1.29,0.49,1.78,0l5.33-5.33
				c0.49-0.49,1.29-0.49,1.78,0l5.33,5.33c0.49,0.49,1.28,0.49,1.77,0l5.34-5.33c0.49-0.49,1.28-0.49,1.77,0l5.34,5.33
				c0.49,0.49,1.28,0.49,1.77,0l4.11-4.11C162.22,82.58,163.57,83.14,163.57,84.26z"/>
			<path class="st8" d="M159.789,139.202c-7.845,8.622-19.147,14.028-31.719,14.028c-12.643,0-24.008-5.468-31.844-14.171
				c-1.38-1.53-2.646-3.163-3.796-4.881v8.302c8.77,9.74,21.49,15.86,35.64,15.86c14.07,0,26.72-6.05,35.5-15.7v-8.249
				C162.422,136.084,161.161,137.694,159.789,139.202z"/>
			<g>
				<path class="st9" d="M128.962,106.401h-25.894c-1.241,0-2.247-1.006-2.247-2.247l0,0c0-1.241,1.006-2.247,2.247-2.247h25.894
					c1.241,0,2.247,1.006,2.247,2.247l0,0C131.209,105.395,130.203,106.401,128.962,106.401z"/>
				<path class="st9" d="M152.932,106.401H142.02c-1.241,0-2.247-1.006-2.247-2.247l0,0c0-1.241,1.006-2.247,2.247-2.247h10.912
					c1.241,0,2.247,1.006,2.247,2.247l0,0C155.179,105.395,154.173,106.401,152.932,106.401z"/>
			</g>
			<g>
				<path class="st9" d="M128.962,117.513h-25.894c-1.241,0-2.247-1.006-2.247-2.247l0,0c0-1.241,1.006-2.247,2.247-2.247h25.894
					c1.241,0,2.247,1.006,2.247,2.247l0,0C131.209,116.507,130.203,117.513,128.962,117.513z"/>
				<path class="st9" d="M152.932,117.513H142.02c-1.241,0-2.247-1.006-2.247-2.247l0,0c0-1.241,1.006-2.247,2.247-2.247h10.912
					c1.241,0,2.247,1.006,2.247,2.247l0,0C155.179,116.507,154.173,117.513,152.932,117.513z"/>
			</g>
			<g>
				<path class="st9" d="M128.962,128.624h-25.894c-1.241,0-2.247-1.006-2.247-2.247l0,0c0-1.241,1.006-2.247,2.247-2.247h25.894
					c1.241,0,2.247,1.006,2.247,2.247l0,0C131.209,127.618,130.203,128.624,128.962,128.624z"/>
				<path class="st9" d="M152.932,128.624H142.02c-1.241,0-2.247-1.006-2.247-2.247l0,0c0-1.241,1.006-2.247,2.247-2.247h10.912
					c1.241,0,2.247,1.006,2.247,2.247l0,0C155.179,127.618,154.173,128.624,152.932,128.624z"/>
			</g>
			<path class="st2" d="M152.932,141.299h-25.894c-1.241,0-2.247-1.006-2.247-2.247l0,0c0-1.241,1.006-2.247,2.247-2.247h25.894
				c1.241,0,2.247,1.006,2.247,2.247l0,0C155.179,140.293,154.173,141.299,152.932,141.299z"/>
		</g>
		<g>
			<circle class="st10" cx="128" cy="182.501" r="30"/>
			<g>
				<g>
					<g>
						<path class="st11" d="M124.807,198.574c-1.322,0-2.591-0.526-3.526-1.461l-9.751-9.749c-1.948-1.947-1.948-5.104,0-7.053
							c1.948-1.948,5.104-1.948,7.053,0l6.225,6.222l12.612-12.613c1.948-1.948,5.104-1.948,7.053,0
							c1.948,1.947,1.948,5.104,0,7.053l-16.138,16.141C127.398,198.049,126.132,198.574,124.807,198.574z"/>
					</g>
					<g>
						<path class="st12" d="M124.807,195.456c-1.322,0-2.591-0.526-3.526-1.461l-9.751-9.749c-1.948-1.947-1.948-5.104,0-7.053
							c1.948-1.948,5.104-1.948,7.053,0l6.225,6.221l12.612-12.613c1.948-1.948,5.104-1.948,7.053,0
							c1.948,1.947,1.948,5.104,0,7.053l-16.138,16.141C127.398,194.93,126.132,195.456,124.807,195.456z"/>
					</g>
					<path class="st13" d="M144.471,171.133l-16.138,16.141c-0.935,0.935-2.202,1.461-3.526,1.461c-1.322,0-2.591-0.526-3.526-1.461
						l-9.751-9.75c-0.051-0.052-0.087-0.112-0.135-0.166c-1.796,1.958-1.761,4.992,0.135,6.887l9.751,9.75
						c0.935,0.935,2.205,1.461,3.526,1.461c1.325,0,2.591-0.526,3.526-1.461l16.138-16.141c1.897-1.897,1.932-4.931,0.136-6.887
						C144.557,171.02,144.523,171.081,144.471,171.133z"/>
				</g>
			</g>
		</g>
	</g>
</g>
</svg>
